<?xml version="1.0" ?><svg viewBox="0 0 64 64" xmlns="http://www.w3.org/2000/svg"><title/><g data-name="DAy 02" id="b005a4b0-753d-400d-8850-806ebe331bee"><g data-name="&lt;Group&gt;" id="dad01179-6e7c-4b82-83f7-a629070026c9"><path d="M62,32.58a9.84,9.84,0,0,0-2.94-7,1.58,1.58,0,0,1-.38-1.65,6.9,6.9,0,0,0-4.61-8.82,6.92,6.92,0,0,0-6.88-6.21c-.07,0-.13-.2-.2-.2A8.7,8.7,0,0,0,40.14,5H38.8a4.2,4.2,0,0,0-.72.06A4.82,4.82,0,0,0,34,9.8V54.2A4.83,4.83,0,0,0,38.25,59a4.93,4.93,0,0,0,.55,0h1.91a7.48,7.48,0,0,0,3-.74l.27-.12.16,0a6.46,6.46,0,0,0,7.48-3.91l.4,0A6.51,6.51,0,0,0,58.24,51a6.39,6.39,0,0,0,.4-5.31A4.9,4.9,0,0,0,60,38.51,9.84,9.84,0,0,0,62,32.58Z" data-name="&lt;Compound Path&gt;" fill="#e37cff" id="9e898d54-839b-4d53-a8f2-5fc999c8b741"/><path d="M59,32.58a9.84,9.84,0,0,0-2.94-7,1.58,1.58,0,0,1-.38-1.65,6.9,6.9,0,0,0-4.61-8.82,6.92,6.92,0,0,0-6.88-6.21c-.07,0-.13-.2-.2-.2a8.87,8.87,0,0,0-5.91-3.62A4.82,4.82,0,0,0,34,9.8V54.2a4.82,4.82,0,0,0,4,4.73l.25,0A8.4,8.4,0,0,0,41,58.14a6.27,6.27,0,0,0,1.69.21,5.92,5.92,0,0,0,1-.09,2.31,2.31,0,0,1,.43-.08A6.46,6.46,0,0,0,51,54c3.46,0,3.78-.78,5-3,1-1.84.22-3.73-.36-5.31A4.9,4.9,0,0,0,57,38.51,9.84,9.84,0,0,0,59,32.58Z" data-name="&lt;Compound Path&gt;" fill="#ff001a" id="4a3f2640-63ac-4201-90da-64d3f90b944c"/><path d="M36,39V58c-1.21-.21-.28.06-1-.88V39Z" data-name="&lt;Path&gt;" fill="#b40e0e" id="17556f29-ba33-4b3d-bb82-ccd6359b7504"/><polygon data-name="&lt;Path&gt;" fill="#b40e0e" id="b6f0ada1-4d19-414d-99e0-06358e3e1e0e" points="43 22 42.21 22.89 39.62 24.19 36 25 34 25 34 22 43 22"/><path d="M26.15,5a2.28,2.28,0,0,0-.45,0H24.36a8.7,8.7,0,0,0-6.85,3.68c-.07,0-.13.1-.2.1A7,7,0,0,0,10.43,15a6.95,6.95,0,0,0-4.21,9.82A9.85,9.85,0,0,0,4.49,38.5a4.9,4.9,0,0,0,1.37,7.16,6.57,6.57,0,0,0-.4,2.22,6.43,6.43,0,0,0,6.42,6.42,6.11,6.11,0,0,0,1-.08,6.41,6.41,0,0,0,6,4,7.13,7.13,0,0,0,1.54-.08l.15,0,.16.07a7.67,7.67,0,0,0,3.15.79H26a4.5,4.5,0,0,0,4-4.2V9.38A4.69,4.69,0,0,0,26.15,5Z" data-name="&lt;Compound Path&gt;" fill="#b0b2ff" id="d7cae277-ff7f-495d-9960-c37974e21bbb"/><path d="M26.15,5A8.81,8.81,0,0,0,20,8.68c-.07,0-.13.1-.2.1A7,7,0,0,0,12.93,15a6.95,6.95,0,0,0-4.21,9.82A9.85,9.85,0,0,0,7,38.5a4.9,4.9,0,0,0,1.37,7.16A6.57,6.57,0,0,0,8,47.88C8,51.42,9.46,54,13,54c.33,0,.68,1.05,1,1,.83,2.07,4,2.84,6.33,3.17a1.54,1.54,0,0,0,.31,0,4.64,4.64,0,0,0,.65,0A6.28,6.28,0,0,0,23,58.14,8.24,8.24,0,0,0,26,59a4.5,4.5,0,0,0,4-4.2V9.38A4.69,4.69,0,0,0,26.15,5Z" data-name="&lt;Compound Path&gt;" fill="#328df0" id="a6bca92c-fe38-4263-8ff6-b60abb861346"/><path d="M26.15,5A8.81,8.81,0,0,0,20,8.69c-.07,0-.13.1-.2.1A7,7,0,0,0,12.93,15a6.95,6.95,0,0,0-4.21,9.82A9.85,9.85,0,0,0,7,38.51a4.9,4.9,0,0,0,1.37,7.16A6.57,6.57,0,0,0,8,47.89C8,51.43,9.46,54,13,54c.33,0,.68,1.05,1,1,.83,2.07,4,2.84,6.33,3.17a1.54,1.54,0,0,0,.31,0,4.64,4.64,0,0,0,.65,0A6.28,6.28,0,0,0,23,58.15,8.24,8.24,0,0,0,26,59a4.5,4.5,0,0,0,4-4.2V9.39A4.69,4.69,0,0,0,26.15,5Z" data-name="&lt;Compound Path&gt;" fill="#328df0" id="fc7e8c38-1e7f-4a9b-98d1-40cc90559ac2"/><path d="M28,39V58c1-.21.28.06,1-.88V39Z" data-name="&lt;Path&gt;" fill="#166bb7" id="6e4a43b2-a52f-44ad-85d8-7e3e890cd057"/><polygon data-name="&lt;Path&gt;" fill="#166bb7" id="4799e974-efea-4dd9-9dcc-c3032ded0542" points="21 22 21.79 22.89 24.38 24.19 28 25 30 25 30 22 21 22"/><path d="M25.7,5H24.36a8.71,8.71,0,0,0-6.85,3.68c-.07,0-.13.1-.2.1A7,7,0,0,0,10.43,15a6.94,6.94,0,0,0-4.21,9.81A9.85,9.85,0,0,0,4.49,38.5a4.89,4.89,0,0,0,1.37,7.16,6.38,6.38,0,0,0,7,8.55,6.42,6.42,0,0,0,6,4,6.41,6.41,0,0,0,1.69-.1,8,8,0,0,0,3.31.86H25.7A4.49,4.49,0,0,0,30,54.79V9.38A4.65,4.65,0,0,0,25.7,5Z" data-name="&lt;Compound Path&gt;" fill="none" id="9feab291-f62c-434f-9c48-8770263d009a" stroke="#001c63" stroke-linecap="round" stroke-linejoin="round" stroke-width="2"/><path d="M2.5,32.58a8.89,8.89,0,0,1,17.77,0" data-name="&lt;Path&gt;" fill="none" id="b9e61c7c-dea0-493c-8af2-ade1128e7395" stroke="#001c63" stroke-linecap="round" stroke-linejoin="round" stroke-width="2"/><path d="M6.45,33.56a6.41,6.41,0,0,1,2.47-5.06" data-name="&lt;Path&gt;" fill="none" id="de3cf1b2-5416-4811-b966-f5e709a4ad7d" stroke="#001c63" stroke-linecap="round" stroke-linejoin="round" stroke-width="2"/><path d="M10.89,13a6.67,6.67,0,0,1,12.84,2.52" data-name="&lt;Path&gt;" fill="none" id="892c9aed-efd3-4740-b524-d1b8bbee67c2" stroke="#001c63" stroke-linecap="round" stroke-linejoin="round" stroke-width="2"/><path d="M8.64,42a3.36,3.36,0,0,1,3.68,5.48" data-name="&lt;Path&gt;" fill="none" id="c606371a-b537-4a2d-82bc-4571b7a61d50" stroke="#001c63" stroke-linecap="round" stroke-linejoin="round" stroke-width="2"/><path d="M14.29,18A2.66,2.66,0,0,1,18,18" data-name="&lt;Path&gt;" fill="none" id="64803dfd-d116-47f3-801a-7992bf1edaf4" stroke="#001c63" stroke-linecap="round" stroke-linejoin="round" stroke-width="2"/><path d="M15.28,50.6a2.66,2.66,0,0,1,3.75,0" data-name="&lt;Path&gt;" fill="none" id="e92949b2-275c-4f78-9b45-a1892a2ccfee" stroke="#001c63" stroke-linecap="round" stroke-linejoin="round" stroke-width="2"/><path d="M29.65,39h-11a6.78,6.78,0,0,1-6.78-6.78V30.11" data-name="&lt;Path&gt;" fill="none" id="4c8758c4-1e49-4017-9c15-76f7dfc3ef85" stroke="#001c63" stroke-linecap="round" stroke-linejoin="round" stroke-width="2"/><path d="M29.65,24.19H24.76a3,3,0,0,1-3-3v-.94" data-name="&lt;Path&gt;" fill="none" id="e42323da-1b0b-447b-a924-2e6a02fb02b6" stroke="#001c63" stroke-linecap="round" stroke-linejoin="round" stroke-width="2"/><path d="M29.65,44.92H24.76a3,3,0,0,0-3,3v.94" data-name="&lt;Path&gt;" fill="none" id="6bce9005-34bd-4420-b48b-62cd267c2e52" stroke="#001c63" stroke-linecap="round" stroke-linejoin="round" stroke-width="2"/><g data-name="&lt;Group&gt;" id="9438c46b-91c3-40ef-8599-ed6cd8d7a524"><path d="M23.71,56.78a3,3,0,1,1,0-5.95,1,1,0,1,1,0,2,1,1,0,1,0,0,1.95,1,1,0,1,1,0,2Z" data-name="&lt;Path&gt;" fill="#b0b2ff" id="e9dd444a-27e3-49f3-9130-cfd9a3508c23"/></g><path d="M24.71,55.78a2,2,0,1,1,0-3.95" data-name="&lt;Path&gt;" fill="none" id="b2277762-9736-42ce-b897-bf07ee1a7eef" stroke="#001c63" stroke-linecap="round" stroke-linejoin="round" stroke-width="2"/><line data-name="&lt;Path&gt;" fill="none" id="3abf062d-2916-4292-8e63-4d4734ca1a48" stroke="#001c63" stroke-linecap="round" stroke-linejoin="round" stroke-width="2" x1="26" x2="30" y1="33" y2="33"/><path d="M34,9.8V54.2A4.81,4.81,0,0,0,38.8,59h1.91A8,8,0,0,0,44,58.14a6.4,6.4,0,0,0,1.69.21,6.46,6.46,0,0,0,6-4.08l.4,0A6.5,6.5,0,0,0,58.24,51a6.34,6.34,0,0,0,.4-5.3A4.89,4.89,0,0,0,60,38.51a9.84,9.84,0,0,0-.78-12.78,2.07,2.07,0,0,1-.48-2.06,6.9,6.9,0,0,0-3.87-8.29,1.67,1.67,0,0,1-1-1.16,6.91,6.91,0,0,0-6.73-5.35c-.07,0-.13-.21-.2-.2A8.71,8.71,0,0,0,40.14,5H38.8A4.81,4.81,0,0,0,34,9.8Z" data-name="&lt;Compound Path&gt;" fill="none" id="854ca944-9eca-4b56-9338-5fe9ef2fa8ff" stroke="#001c63" stroke-linecap="round" stroke-linejoin="round" stroke-width="2"/><path d="M62,32.58a8.89,8.89,0,0,0-17.77,0" data-name="&lt;Path&gt;" fill="none" id="185b92e6-dc85-43fc-8419-46358abe1a94" stroke="#001c63" stroke-linecap="round" stroke-linejoin="round" stroke-width="2"/><path d="M58.05,33.56a6.41,6.41,0,0,0-2.47-5.06" data-name="&lt;Path&gt;" fill="none" id="332c148e-965d-42d0-b6ae-1efca39e9687" stroke="#001c63" stroke-linecap="round" stroke-linejoin="round" stroke-width="2"/><path d="M53.61,13a6.67,6.67,0,0,0-12.84,2.52" data-name="&lt;Path&gt;" fill="none" id="360a987b-d220-41bd-afab-6fc6de68818f" stroke="#001c63" stroke-linecap="round" stroke-linejoin="round" stroke-width="2"/><path d="M55.86,42a3.36,3.36,0,0,0-3.68,5.48" data-name="&lt;Path&gt;" fill="none" id="43db05ce-bbf7-4e08-a8ff-95571beae4c5" stroke="#001c63" stroke-linecap="round" stroke-linejoin="round" stroke-width="2"/><path d="M50.21,18a2.66,2.66,0,0,0-3.75,0" data-name="&lt;Path&gt;" fill="none" id="0bb056a8-1c08-4dfc-b303-1d4b24b31781" stroke="#001c63" stroke-linecap="round" stroke-linejoin="round" stroke-width="2"/><path d="M49.22,50.6a2.66,2.66,0,0,0-3.75,0" data-name="&lt;Path&gt;" fill="none" id="d07bb196-1c98-4286-b0a4-5e464016f163" stroke="#001c63" stroke-linecap="round" stroke-linejoin="round" stroke-width="2"/><path d="M34.85,39h11a6.78,6.78,0,0,0,6.78-6.78V30.11" data-name="&lt;Path&gt;" fill="none" id="8151b944-acfa-4f82-9152-52ad11571f6b" stroke="#001c63" stroke-linecap="round" stroke-linejoin="round" stroke-width="2"/><path d="M42.75,20.24v.94a3,3,0,0,1-3,3H34.85" data-name="&lt;Path&gt;" fill="none" id="20f8e72e-d52b-4b23-9ba0-91598d596cd2" stroke="#001c63" stroke-linecap="round" stroke-linejoin="round" stroke-width="2"/><path d="M34.85,44.92h4.89a3,3,0,0,1,3,3v.94" data-name="&lt;Path&gt;" fill="none" id="c2b49dbe-59f1-4595-b0a1-cec581f2121c" stroke="#001c63" stroke-linecap="round" stroke-linejoin="round" stroke-width="2"/><g data-name="&lt;Group&gt;" id="17ba476c-8bce-4470-b228-9e2b67f9dabd"><path d="M40.79,56.78a1,1,0,0,1,0-2,1,1,0,1,0,0-1.95,1,1,0,0,1,0-2,3,3,0,1,1,0,5.95Z" data-name="&lt;Path&gt;" fill="#e37cff" id="911aaf65-6397-40d7-9699-170eb7bbcecf"/></g><path d="M39.79,55.78a2,2,0,0,0,0-3.95" data-name="&lt;Path&gt;" fill="none" id="6e52c3fc-beba-4535-88ab-c13d8152c55a" stroke="#001c63" stroke-linecap="round" stroke-linejoin="round" stroke-width="2"/><line data-name="&lt;Path&gt;" fill="none" id="6011342b-cd8c-4e2c-986d-dd53ad20c28b" stroke="#001c63" stroke-linecap="round" stroke-linejoin="round" stroke-width="2" x1="38" x2="34" y1="33" y2="33"/></g></g></svg>