<svg xmlns="http://www.w3.org/2000/svg" xmlns:xlink="http://www.w3.org/1999/xlink" fill="none" version="1.1" width="128" height="128" viewBox="0 0 128 128"><g><g><rect x="0" y="0" width="128" height="128" rx="0" fill="#7551CD" fill-opacity="1"/></g><g><path d="M44.83456137451172,38.37104C43.83236137451172,40.05885,41.650511374511716,40.61462,39.96295137451172,39.61228C38.274422974511715,38.60993,37.71872937451172,36.42879,38.72092737451172,34.74005C39.72412137451172,33.052241,41.90498137451172,32.496474,43.59350137451172,33.498815C45.28107137451172,34.50116,45.83676137451172,36.68326,44.83456137451172,38.37104C44.83456137451172,38.37104,44.83456137451172,38.37104,44.83456137451172,38.37104Z" fill-rule="evenodd" fill="#FFFFFF" fill-opacity="1"/></g><g><path d="M27.30581,35.68532C26.80408,36.52941,25.71369,36.80756,24.870352,36.3058C24.0263309,35.80475,23.748211,34.71427,24.249242,33.870223C24.750961,33.0261388,25.84136,32.747989,26.68538,33.249746C27.52941,33.750792,27.80752,34.84127,27.30581,35.68532C27.30581,35.68532,27.30581,35.68532,27.30581,35.68532Z" fill-rule="evenodd" fill="#FFFFFF" fill-opacity="1"/></g><g><path d="M89.29854465637207,43.897882250976565C83.44074465637206,37.492392250976565,75.34304465637207,33.67005425097656,66.50144465637207,33.13377255097656C64.37174465637207,33.00467105097656,62.21104465637207,33.075283470976565,60.075544656372074,33.345646250976564C60.075544656372074,33.345646250976564,60.07454465637207,33.345646250976564,60.07454465637207,33.345646250976564C59.33824465637207,33.404135250976566,58.62614465637207,33.499031250976564,57.94484465637207,33.61376925097656C57.94484465637207,33.61376925097656,57.31734465637207,33.69323625097656,57.31734465637207,33.69323625097656C57.31734465637207,33.69323625097656,57.38154465637207,33.71528025097656,57.38154465637207,33.71528025097656C54.31634465637207,34.30013225097656,52.06294465637207,35.265632250976566,51.94504465637207,35.31751225097656C51.94504465637207,35.31751225097656,51.92554465637207,35.325222250976566,51.92554465637207,35.325222250976566C48.55464465637207,36.91195225097656,46.69864465637207,39.539242250976564,46.69864465637207,42.72490225097656C46.69864465637207,47.11658225097656,50.40614465637207,50.68848225097656,54.96434465637207,50.68848225097656C55.912444656372074,50.68848225097656,58.85624465637207,49.73168225097656,58.88484465637207,49.72168225097656C61.00214465637207,49.01018225097656,63.21404465637207,48.716582250976565,65.47324465637206,48.85558225097656C71.21894465637207,49.204382250976565,76.31974465637208,52.31258225097656,79.12394465637206,57.170182250976566C79.12394465637206,57.170182250976566,79.13074465637207,57.183382250976564,79.13074465637207,57.183382250976564C80.69024465637207,59.892282250976564,81.40804465637207,62.95858225097656,81.20784465637206,66.05508225097657C80.62404465637206,74.97628225097657,72.62834465637206,81.77808225097655,63.36054465637207,81.21628225097656C58.094844656372075,80.89738225097656,53.40484465637207,78.29218225097657,50.458844656372065,74.07138225097657C50.458844656372065,74.07138225097657,50.458844656372065,74.06498225097656,50.458844656372065,74.06498225097656C50.458844656372065,74.06498225097656,50.36034465637207,73.94238225097656,50.36034465637207,73.94238225097656C50.36034465637207,73.94238225097656,49.69164465637207,72.96708225097656,49.69164465637207,72.96708225097656C47.39824465637207,69.18538225097656,47.694744656372066,63.976182250976564,47.787444656372074,62.89458225097656C47.787444656372074,62.89458225097656,47.79664465637207,62.79108225097656,47.79664465637207,62.79108225097656C47.79664465637207,62.79108225097656,47.794344656372076,62.75238225097657,47.794344656372076,62.75238225097657C47.636344656372074,58.43668225097656,44.00444465637207,55.05568225097656,39.52745465637207,55.05568225097656C35.80046465637207,55.05568225097656,32.51661465637207,57.48018225097656,31.54221765637207,60.95038225097656C31.34410295637207,61.65338225097656,31.25709922937207,63.52468225097656,31.28458345637207,63.73758225097656C30.55178765637207,80.96238225097656,44.48074465637207,95.85548225097656,62.33364465637207,96.93818225097655C63.00564465637207,96.97898225097657,63.68474465637207,96.99998225097656,64.36814465637207,96.99998225097656C65.61404465637207,96.99998225097656,66.87584465637207,96.92708225097655,68.13414465637207,96.79128225097656C68.13414465637207,96.79128225097656,68.14454465637206,96.79448225097656,68.14454465637206,96.79448225097656C68.14454465637206,96.79448225097656,68.32194465637207,96.77498225097656,68.32194465637207,96.77498225097656C68.32194465637207,96.77498225097656,70.95194465637206,96.47698225097656,70.95194465637206,96.47698225097656C70.95194465637206,96.47698225097656,70.76424465637207,96.40298225097656,70.76424465637207,96.40298225097656C85.47414465637206,93.66308225097657,96.56564465637207,81.67098225097656,97.52174465637206,67.04458225097656C98.07824465637206,58.52268225097656,95.15734465637206,50.30338225097656,89.29854465637207,43.897882250976565C89.29854465637207,43.897882250976565,89.29854465637207,43.897882250976565,89.29854465637207,43.897882250976565Z" fill-rule="evenodd" fill="#FFFFFF" fill-opacity="1"/></g><g><path d="M37.47382534362793,48.16795068725586C35.970145343627934,50.70021068725586,32.69891534362793,51.53291068725586,30.16538534362793,50.02928068725586C27.63298854362793,48.52529068725586,26.80050634362793,45.25419068725586,28.30416734362793,42.72180068725586C29.80780534362793,40.18936788725586,33.07903534362793,39.35577368725586,35.61256534362793,40.85940868725586C38.14385534362793,42.36308068725586,38.97745534362793,45.63545068725586,37.47382534362793,48.16795068725586C37.47382534362793,48.16795068725586,37.47382534362793,48.16795068725586,37.47382534362793,48.16795068725586Z" fill-rule="evenodd" fill="#FFFFFF" fill-opacity="1"/></g></g></svg>