<svg width="24" height="27.692307692307693" viewBox="0 0 52 60" fill="none"><path d="M32.571 43.014h19.286v10.672a5.829 5.829 0 01-5.829 5.814H32.571V43.014z" fill="#0040D5"/><path d="M45.5 0H16L0 16.5v43h45.5V0z" fill="#FFE39B"/><path d="M7.757 16.643A9.072 9.072 0 0016.83 7.57L16 0C11.5 4.5 6.5 10 0 16.5l7.757.143z" fill="#F2C160"/><path d="M16.143 27.357a1.072 1.072 0 00-1.071-1.071H8.643a1.072 1.072 0 000 2.143h6.429a1.072 1.072 0 001.071-1.072z" fill="#E1B254"/><path d="M36.5 26.286H19.358a1.071 1.071 0 100 2.143H36.5a1.072 1.072 0 000-2.143z" fill="url(#svg_501bfac7fe__paint0_linear_896:213002)"/><path d="M36.5 34.857h-4.286a1.072 1.072 0 000 2.143H36.5a1.071 1.071 0 100-2.143z" fill="url(#svg_501bfac7fe__paint1_linear_896:213002)"/><path d="M29 35.929a1.072 1.072 0 00-1.071-1.072H8.643a1.072 1.072 0 000 2.143H27.93A1.071 1.071 0 0029 35.93zM22.572 44.5a1.071 1.071 0 00-1.072-1.072H8.643a1.072 1.072 0 000 2.143H21.5a1.071 1.071 0 001.072-1.071z" fill="#E1B254"/><path d="M36.5 43.428H25.786a1.072 1.072 0 000 2.143H36.5a1.071 1.071 0 100-2.142z" fill="url(#svg_501bfac7fe__paint2_linear_896:213002)"/><path d="M36.5 25.214H19.358a1.071 1.071 0 100 2.143H36.5a1.072 1.072 0 000-2.143z" fill="url(#svg_501bfac7fe__paint3_linear_896:213002)"/><path d="M36.5 33.786h-4.286a1.072 1.072 0 000 2.143H36.5a1.072 1.072 0 000-2.143z" fill="url(#svg_501bfac7fe__paint4_linear_896:213002)"/><path d="M36.5 42.357H25.786a1.072 1.072 0 000 2.143H36.5a1.071 1.071 0 100-2.143z" fill="url(#svg_501bfac7fe__paint5_linear_896:213002)"/><path d="M46.029 20.928H18.357A4.357 4.357 0 0014 25.286v19.142a4.357 4.357 0 004.357 4.358H46.03a6.085 6.085 0 015.828 4.285V26.757a5.828 5.828 0 00-5.828-5.829z" fill="#3370FF"/><path d="M24.006 29.764c-.924 0-1.68.204-2.28.624-.648.432-.96 1.032-.96 1.788s.324 1.332.984 1.728c.252.144.912.384 1.968.72.948.288 1.5.48 1.668.564.528.264.804.624.804 1.08 0 .36-.192.636-.552.852-.36.204-.864.312-1.488.312-.708 0-1.224-.132-1.56-.372-.372-.276-.6-.744-.696-1.392h-1.392c.06 1.092.456 1.884 1.176 2.388.588.408 1.416.612 2.472.612 1.092 0 1.944-.228 2.544-.66.6-.444.9-1.056.9-1.824 0-.792-.372-1.404-1.116-1.848-.336-.192-1.08-.48-2.244-.84-.792-.252-1.284-.432-1.464-.528-.408-.216-.6-.516-.6-.876 0-.408.168-.708.528-.888.288-.156.696-.228 1.236-.228.624 0 1.104.108 1.416.348.312.228.54.612.66 1.14h1.392c-.084-.936-.432-1.632-1.032-2.076-.564-.42-1.356-.624-2.364-.624zm4.793.168V38.5h3.132c1.392 0 2.436-.384 3.156-1.152.684-.732 1.032-1.776 1.032-3.132 0-1.368-.348-2.412-1.032-3.132-.72-.768-1.764-1.152-3.156-1.152h-3.132zm1.404 1.2h1.464c1.068 0 1.848.24 2.34.732.48.48.72 1.272.72 2.352 0 1.056-.24 1.836-.72 2.34-.492.492-1.272.744-2.34.744h-1.464v-6.168zm12.62-1.2l-3.983 4.044v-4.044h-1.405V38.5h1.404v-2.952l1.044-1.02 3.384 3.972h1.896l-4.331-4.896 3.767-3.672h-1.775z" fill="#fff"/><defs><linearGradient id="svg_501bfac7fe__paint0_linear_896:213002" x1="466.679" y1="166.107" x2="466.679" y2="23.5" gradientUnits="userSpaceOnUse"><stop stop-color="#273A9B"/><stop offset=".56" stop-color="#202F65"/><stop offset="1" stop-color="#021E2F"/></linearGradient><linearGradient id="svg_501bfac7fe__paint1_linear_896:213002" x1="209.536" y1="174.679" x2="209.536" y2="32.072" gradientUnits="userSpaceOnUse"><stop stop-color="#273A9B"/><stop offset=".56" stop-color="#202F65"/><stop offset="1" stop-color="#021E2F"/></linearGradient><linearGradient id="svg_501bfac7fe__paint2_linear_896:213002" x1="352.572" y1="183.25" x2="352.572" y2="40.643" gradientUnits="userSpaceOnUse"><stop stop-color="#273A9B"/><stop offset=".56" stop-color="#202F65"/><stop offset="1" stop-color="#021E2F"/></linearGradient><linearGradient id="svg_501bfac7fe__paint3_linear_896:213002" x1="466.679" y1="157.814" x2="466.679" y2="192.1" gradientUnits="userSpaceOnUse"><stop stop-color="#273A9B"/><stop offset=".56" stop-color="#202F65"/><stop offset="1" stop-color="#021E2F"/></linearGradient><linearGradient id="svg_501bfac7fe__paint4_linear_896:213002" x1="209.536" y1="166.386" x2="209.536" y2="200.672" gradientUnits="userSpaceOnUse"><stop stop-color="#273A9B"/><stop offset=".56" stop-color="#202F65"/><stop offset="1" stop-color="#021E2F"/></linearGradient><linearGradient id="svg_501bfac7fe__paint5_linear_896:213002" x1="352.572" y1="174.957" x2="352.572" y2="209.243" gradientUnits="userSpaceOnUse"><stop stop-color="#273A9B"/><stop offset=".56" stop-color="#202F65"/><stop offset="1" stop-color="#021E2F"/></linearGradient></defs></svg>